<?xml version="1.0" standalone="no"?>
<!DOCTYPE svg PUBLIC "-//W3C//DTD SVG 20010904//EN"
 "http://www.w3.org/TR/2001/REC-SVG-20010904/DTD/svg10.dtd">
<svg version="1.0" xmlns="http://www.w3.org/2000/svg"
 width="512.000000pt" height="512.000000pt" viewBox="0 0 512.000000 512.000000"
 preserveAspectRatio="xMidYMid meet">

<g transform="translate(0.000000,512.000000) scale(0.100000,-0.100000)"
fill="#000000" stroke="none">
<path d="M2442 5014 c-75 -20 -157 -62 -208 -107 -43 -38 -53 -63 -38 -102 6
-15 53 -45 71 -45 5 0 40 20 78 45 37 25 91 52 118 60 109 32 242 9 336 -59
73 -52 94 -55 131 -18 41 41 38 67 -11 114 -110 105 -320 155 -477 112z"/>
<path d="M2474 4696 c-122 -57 -145 -196 -33 -196 28 0 42 8 66 35 42 47 84
48 130 3 43 -41 86 -43 120 -3 42 48 8 116 -79 159 -67 34 -135 34 -204 2z"/>
<path d="M2520 4390 c-26 -26 -26 -81 0 -105 47 -42 123 -7 123 56 0 61 -80
92 -123 49z"/>
<path d="M2420 4123 c-34 -13 -50 -37 -50 -73 0 -50 24 -70 83 -70 l47 0 0
-215 0 -215 -235 0 -235 0 0 103 c0 115 -14 151 -72 187 -31 19 -51 20 -308
20 -317 0 -329 -2 -367 -80 -19 -37 -23 -61 -23 -140 l0 -95 -87 -23 c-255
-65 -467 -232 -593 -465 -57 -106 -71 -151 -170 -565 -94 -391 -96 -408 -51
-431 30 -17 69 -13 90 8 12 12 34 85 66 217 150 629 152 636 240 769 85 129
207 227 355 288 117 48 178 57 402 57 207 0 208 0 213 -22 3 -13 34 -168 69
-345 38 -193 70 -332 80 -348 10 -15 36 -35 59 -46 40 -17 74 -19 619 -19 635
0 635 0 678 61 22 30 59 181 60 241 0 62 -67 98 -117 63 -20 -14 -29 -42 -58
-182 l-7 -33 -554 0 -554 0 -5 23 c-11 47 -115 585 -115 596 0 8 182 11 680
11 374 0 680 -2 680 -4 0 -2 -7 -39 -16 -81 -15 -75 -15 -79 3 -104 14 -18 31
-27 55 -29 56 -5 75 19 96 123 l18 90 209 3 c183 2 219 0 289 -18 228 -57 414
-207 517 -414 48 -98 56 -129 305 -1166 279 -1164 272 -1128 226 -1234 -30
-66 -63 -103 -141 -157 -59 -40 -66 -49 -69 -82 -4 -43 24 -77 63 -77 43 0
127 50 185 109 96 99 149 244 137 374 -8 79 -497 2119 -530 2209 -52 142 -155
289 -274 389 -108 92 -224 152 -375 194 l-58 16 0 111 c0 93 -3 116 -20 143
-38 62 -57 65 -360 65 -292 0 -300 -1 -350 -55 -23 -24 -25 -37 -30 -138 l-5
-112 -232 -3 -233 -2 0 215 0 215 43 0 c48 0 71 17 82 61 5 20 0 33 -18 55
l-25 29 -149 2 c-81 1 -155 -1 -163 -4z"/>
<path d="M3714 3061 c-22 -10 -56 -37 -75 -60 -64 -74 -76 -163 -33 -250 82
-163 309 -170 402 -12 36 60 37 155 4 218 -56 106 -190 153 -298 104z m146
-151 c43 -43 31 -109 -26 -130 -46 -18 -104 25 -104 78 0 58 88 94 130 52z"/>
<path d="M1159 2980 c-67 -35 -129 -128 -129 -194 0 -11 -9 -16 -27 -16 -44
-1 -105 -33 -145 -78 -64 -70 -75 -163 -32 -251 32 -63 84 -104 153 -121 47
-11 50 -14 56 -50 15 -91 102 -173 196 -186 95 -13 194 41 235 129 13 29 24
62 24 74 0 17 9 23 50 33 176 42 240 258 114 384 -34 34 -99 65 -135 66 -24 0
-27 5 -33 44 -10 63 -56 127 -115 159 -61 34 -156 37 -212 7z"/>
<path d="M2212 2437 c-37 -39 -28 -88 20 -113 25 -13 35 -13 59 -3 52 21 63
68 28 113 -27 34 -77 36 -107 3z"/>
<path d="M2520 2440 c-36 -36 -21 -102 27 -121 35 -13 77 4 92 37 16 35 14 48
-10 78 -26 33 -79 36 -109 6z"/>
<path d="M2830 2440 c-40 -40 -16 -112 42 -126 22 -5 33 0 58 24 35 36 38 60
9 96 -26 33 -79 36 -109 6z"/>
<path d="M4025 2441 c-120 -55 -168 -191 -110 -308 42 -84 109 -125 206 -125
203 0 301 253 152 394 -61 58 -169 75 -248 39z m130 -137 c24 -10 46 -60 39
-89 -14 -57 -97 -75 -133 -29 -12 15 -21 37 -21 49 0 35 37 75 70 75 16 0 36
-3 45 -6z"/>
<path d="M2365 2130 c-25 -27 -23 -76 3 -102 25 -26 76 -27 103 -2 25 23 26
85 1 107 -26 24 -85 22 -107 -3z"/>
<path d="M2671 2124 c-27 -34 -26 -57 2 -90 46 -53 127 -23 127 47 0 66 -88
95 -129 43z"/>
<path d="M1503 1986 c-104 -34 -194 -114 -241 -214 -24 -50 -27 -69 -27 -162
0 -94 3 -111 27 -160 15 -31 43 -74 63 -97 19 -23 35 -44 35 -47 0 -19 -446
-1005 -463 -1024 -27 -29 -84 -44 -123 -33 -56 16 -428 171 -470 196 -53 31
-90 75 -122 144 -48 105 -46 120 91 691 111 459 123 518 113 545 -21 51 -102
60 -126 15 -19 -36 -252 -1023 -257 -1090 -13 -170 81 -349 228 -437 30 -17
158 -73 284 -124 208 -84 236 -93 295 -93 137 0 205 61 298 269 35 77 136 304
226 505 116 260 167 364 177 361 8 -2 46 -6 86 -9 173 -12 347 104 394 263
l13 45 569 -2 568 -3 24 -59 c64 -158 219 -255 388 -244 40 3 78 7 86 9 9 3
81 -147 238 -501 124 -277 238 -521 253 -540 40 -51 119 -91 190 -97 70 -7
191 27 228 64 29 29 29 73 -1 101 -29 27 -57 28 -127 1 -70 -27 -123 -21 -161
18 -19 18 -100 190 -240 503 -116 261 -215 487 -221 502 -9 24 -5 33 26 71
170 208 102 508 -140 619 -41 19 -66 23 -154 23 -93 0 -112 -3 -162 -27 -103
-48 -197 -159 -222 -261 l-6 -27 -567 2 -566 3 -12 42 c-30 101 -113 195 -213
241 -69 32 -210 41 -279 18z m81 -198 c78 -119 71 -268 -18 -382 -48 -60 -186
88 -186 200 0 52 24 122 55 156 25 29 92 78 106 78 5 0 24 -24 43 -52z m1905
5 c79 -119 77 -262 -5 -370 -30 -40 -46 -41 -93 -6 -46 35 -58 49 -81 98 -47
98 -9 230 84 293 27 17 52 32 56 32 5 0 22 -21 39 -47z"/>
</g>
</svg>
